<svg version="1.1" id="Layer_1" xmlns="http://www.w3.org/2000/svg" xmlns:xlink="http://www.w3.org/1999/xlink" x="0px" y="0px"
	 width="100%" viewBox="0 0 500 500" enable-background="new 0 0 500 500" xml:space="preserve">
<path fill="#000000" opacity="1.000000" stroke="none" 
	d="
M501.000000,174.000000 
	C501.000000,283.333313 501.000000,392.166595 501.000000,500.999939 
	C334.333405,500.999939 167.666794,500.999939 1.000148,500.999969 
	C1.000099,334.333435 1.000099,167.666870 1.000049,1.000237 
	C167.666519,1.000158 334.333038,1.000158 500.999786,1.000079 
	C501.000000,58.500000 501.000000,116.000000 501.000000,174.000000 
M305.663177,197.223587 
	C297.971436,199.986862 290.279694,202.750153 281.874054,205.769913 
	C282.549896,203.889938 282.845520,202.948227 283.221313,202.039688 
	C294.052704,175.853226 304.898376,149.672653 315.728485,123.485641 
	C325.544159,99.751534 335.377472,76.024635 345.136841,52.267387 
	C349.811829,40.887100 346.021637,33.221855 334.312531,29.001339 
	C314.086884,21.711075 293.269104,16.717743 271.893677,15.335245 
	C246.483307,13.691776 221.054810,14.869416 196.283936,21.580034 
	C166.577179,29.627821 139.035706,42.272663 114.311836,60.910889 
	C98.851646,72.565643 84.376877,85.278038 73.017555,100.920403 
	C62.727497,115.090355 52.536827,129.575546 44.449783,145.044418 
	C32.747963,167.427612 26.219070,191.655838 22.711729,216.864777 
	C19.587708,239.318588 19.837852,261.496582 23.290823,283.730865 
	C27.444155,310.474945 35.834057,335.825378 48.917534,359.596893 
	C64.648079,388.177887 85.100975,412.718811 110.926041,432.713867 
	C134.530014,450.989319 160.803497,464.040955 189.385895,472.473816 
	C207.579849,477.841675 226.282013,480.769409 245.144516,481.682251 
	C268.816010,482.827759 292.061829,479.217255 314.955688,473.066895 
	C358.772034,461.295715 395.637329,438.306244 426.355957,405.076508 
	C442.835510,387.249847 455.749146,367.153748 465.855804,345.154846 
	C479.191040,316.128418 486.080078,285.573669 486.800232,253.730057 
	C487.054443,242.490997 486.017303,231.178864 484.928650,219.962311 
	C482.552246,195.478333 475.079712,172.349945 465.215088,149.944977 
	C462.815247,144.494308 458.368500,142.218887 452.710358,144.110336 
	C440.308594,148.256088 428.041107,152.806824 415.744873,157.264252 
	C379.290863,170.479019 342.849457,183.728745 305.663177,197.223587 
z"/>
<path fill="#2E2E86" opacity="1.000000" stroke="none" 
	d="
M306.033142,197.094193 
	C342.849457,183.728745 379.290863,170.479019 415.744873,157.264252 
	C428.041107,152.806824 440.308594,148.256088 452.710358,144.110336 
	C458.368500,142.218887 462.815247,144.494308 465.215088,149.944977 
	C475.079712,172.349945 482.552246,195.478333 484.928650,219.962311 
	C486.017303,231.178864 487.054443,242.490997 486.800232,253.730057 
	C486.080078,285.573669 479.191040,316.128418 465.855804,345.154846 
	C455.749146,367.153748 442.835510,387.249847 426.355957,405.076508 
	C395.637329,438.306244 358.772034,461.295715 314.955688,473.066895 
	C292.061829,479.217255 268.816010,482.827759 245.144516,481.682251 
	C226.282013,480.769409 207.579849,477.841675 189.385895,472.473816 
	C160.803497,464.040955 134.530014,450.989319 110.926041,432.713867 
	C85.100975,412.718811 64.648079,388.177887 48.917534,359.596893 
	C35.834057,335.825378 27.444155,310.474945 23.290823,283.730865 
	C19.837852,261.496582 19.587708,239.318588 22.711729,216.864777 
	C26.219070,191.655838 32.747963,167.427612 44.449783,145.044418 
	C52.536827,129.575546 62.727497,115.090355 73.017555,100.920403 
	C84.376877,85.278038 98.851646,72.565643 114.311836,60.910889 
	C139.035706,42.272663 166.577179,29.627821 196.283936,21.580034 
	C221.054810,14.869416 246.483307,13.691776 271.893677,15.335245 
	C293.269104,16.717743 314.086884,21.711075 334.312531,29.001339 
	C346.021637,33.221855 349.811829,40.887100 345.136841,52.267387 
	C335.377472,76.024635 325.544159,99.751534 315.728485,123.485641 
	C304.898376,149.672653 294.052704,175.853226 283.221313,202.039688 
	C282.845520,202.948227 282.549896,203.889938 281.874054,205.769913 
	C290.279694,202.750153 297.971436,199.986862 306.033142,197.094193 
M172.972275,95.364960 
	C153.137085,106.305603 136.007782,120.428200 121.368698,137.796478 
	C106.715248,155.181808 95.981728,174.695343 89.150864,196.181061 
	C82.422066,217.345764 78.807777,239.193985 81.952484,261.451355 
	C83.915573,275.345612 85.963028,289.459229 90.233765,302.747711 
	C98.939163,329.834747 114.078323,353.146729 134.935226,372.853912 
	C151.585922,388.586670 170.344818,400.697021 191.521118,409.096863 
	C219.905869,420.356018 249.343353,423.637695 279.463684,418.901611 
	C315.558167,413.226166 347.206940,397.830902 373.166016,372.121826 
	C383.197021,362.187439 391.938660,350.633728 399.702118,338.791382 
	C417.406921,311.784607 425.930328,281.646088 425.922607,249.387894 
	C425.919800,237.675201 424.730682,225.836685 422.732697,214.289185 
	C421.031586,204.457352 417.392456,194.960831 414.615662,185.333084 
	C412.642212,185.700562 411.802246,185.742477 411.045044,186.014648 
	C389.206512,193.863602 367.381989,201.751495 345.543091,209.599426 
	C324.330780,217.222168 303.136505,224.896912 281.874786,232.379654 
	C266.610229,237.751801 252.350143,222.898453 254.271606,211.351822 
	C255.395218,204.599792 257.623413,197.915894 260.197784,191.541855 
	C269.257446,169.110687 278.712708,146.839584 287.956482,124.482384 
	C293.580719,110.879471 299.092346,97.230003 304.711823,83.461098 
	C282.190186,75.358154 259.175049,74.263802 236.141769,76.229996 
	C214.163940,78.106071 193.306763,84.885635 172.972275,95.364960 
M434.132385,171.377411 
	C430.728058,172.724091 431.694733,174.919800 432.663879,177.488846 
	C444.968872,210.107025 448.885895,243.635788 443.345490,278.156830 
	C437.324341,315.673187 421.609009,348.664703 396.213531,376.821289 
	C366.285889,410.002747 329.205841,430.405884 284.940613,437.643951 
	C242.009201,444.663879 201.118942,438.461823 163.033539,417.602875 
	C106.964607,386.894501 73.553734,339.424225 63.563858,276.339172 
	C56.662365,232.756897 65.264389,191.421127 86.622658,152.926956 
	C103.934532,121.725632 128.686646,98.001945 159.914688,80.538330 
	C188.469406,64.569687 218.737289,55.845123 251.376984,55.616173 
	C271.635681,55.474064 291.536865,58.402023 310.954681,64.311127 
	C317.049744,66.165947 318.141113,65.680725 320.647339,59.675919 
	C321.609711,57.370155 322.526703,55.045498 323.476074,52.734257 
	C325.572113,47.631462 325.151550,46.382343 319.625977,45.043751 
	C307.351410,42.070202 295.117065,38.679512 282.667297,36.729904 
	C251.897766,31.911461 221.447495,34.630863 191.745758,43.634216 
	C164.881485,51.777447 140.410019,64.736626 118.701927,82.770714 
	C78.261200,116.367020 53.200176,159.174683 43.592876,210.611984 
	C37.587666,242.763748 39.364742,274.878815 48.502090,306.558807 
	C58.943275,342.759369 77.294151,374.146088 104.290306,400.323853 
	C134.540359,429.656921 170.179291,449.007568 211.694534,457.408813 
	C242.236847,463.589508 272.735046,463.489502 302.880096,456.167297 
	C351.676056,444.314819 391.495697,418.113739 422.432983,378.489014 
	C442.450989,352.849792 455.844543,324.081818 462.536469,292.310425 
	C467.940948,266.651276 469.149597,240.650833 464.426483,214.827820 
	C461.775909,200.336197 457.128143,186.180725 452.880463,172.023758 
	C451.003601,165.768509 449.825623,165.691544 443.764160,167.987671 
	C440.809509,169.106903 437.813660,170.117477 434.132385,171.377411 
z"/>
<path fill="#000000" opacity="1.000000" stroke="none" 
	d="
M173.301987,95.192360 
	C193.306763,84.885635 214.163940,78.106071 236.141769,76.229996 
	C259.175049,74.263802 282.190186,75.358154 304.711823,83.461098 
	C299.092346,97.230003 293.580719,110.879471 287.956482,124.482384 
	C278.712708,146.839584 269.257446,169.110687 260.197784,191.541855 
	C257.623413,197.915894 255.395218,204.599792 254.271606,211.351822 
	C252.350143,222.898453 266.610229,237.751801 281.874786,232.379654 
	C303.136505,224.896912 324.330780,217.222168 345.543091,209.599426 
	C367.381989,201.751495 389.206512,193.863602 411.045044,186.014648 
	C411.802246,185.742477 412.642212,185.700562 414.615662,185.333084 
	C417.392456,194.960831 421.031586,204.457352 422.732697,214.289185 
	C424.730682,225.836685 425.919800,237.675201 425.922607,249.387894 
	C425.930328,281.646088 417.406921,311.784607 399.702118,338.791382 
	C391.938660,350.633728 383.197021,362.187439 373.166016,372.121826 
	C347.206940,397.830902 315.558167,413.226166 279.463684,418.901611 
	C249.343353,423.637695 219.905869,420.356018 191.521118,409.096863 
	C170.344818,400.697021 151.585922,388.586670 134.935226,372.853912 
	C114.078323,353.146729 98.939163,329.834747 90.233765,302.747711 
	C85.963028,289.459229 83.915573,275.345612 81.952484,261.451355 
	C78.807777,239.193985 82.422066,217.345764 89.150864,196.181061 
	C95.981728,174.695343 106.715248,155.181808 121.368698,137.796478 
	C136.007782,120.428200 153.137085,106.305603 173.301987,95.192360 
M198.468048,118.793365 
	C198.586487,118.473999 198.704926,118.154633 198.942886,117.538681 
	C198.942886,117.538681 198.978760,117.220947 199.508453,116.818451 
	C199.624069,116.185600 199.739700,115.552750 199.957123,114.105232 
	C201.519501,108.805382 197.322296,106.517044 193.963531,105.649849 
	C191.863251,105.107574 188.670624,107.947639 186.254181,109.671036 
	C182.311646,112.482857 178.814789,115.969551 174.706360,118.477737 
	C172.637802,119.740578 169.565033,119.229538 167.075836,119.961136 
	C162.832596,121.208252 160.261276,125.333969 161.117020,128.952438 
	C161.860321,132.095581 167.011993,135.617737 170.477722,134.629150 
	C176.077988,133.031693 181.498993,130.805725 187.604401,128.914047 
	C188.085754,128.613739 188.567108,128.313431 188.993790,127.986961 
	C188.993790,127.986961 188.987732,128.047272 189.494019,127.844780 
	C189.715897,127.561226 189.937775,127.277672 190.549347,126.940987 
	C190.549347,126.940987 190.925583,126.826530 191.466309,126.801468 
	C191.697510,126.533768 191.928711,126.266068 192.540619,125.824463 
	C192.778885,125.653786 192.930939,125.425652 193.470825,124.874916 
	C193.666489,124.577446 193.862152,124.279984 193.993103,124.000862 
	C193.993103,124.000862 194.018021,124.063339 194.603653,123.776588 
	C195.104813,122.856491 195.605972,121.936386 196.510742,120.843674 
	C196.765961,120.669662 196.926575,120.431778 197.457870,119.869637 
	C197.649139,119.577690 197.840393,119.285736 197.980408,118.984772 
	C197.980408,118.984772 197.999832,119.033051 198.468048,118.793365 
M136.265030,336.520233 
	C136.840775,336.626129 137.416534,336.731995 138.742783,336.936981 
	C139.498001,336.911011 140.253220,336.885010 141.678879,336.950836 
	C142.464859,336.633392 143.250824,336.315918 143.984131,335.983521 
	C143.984131,335.983521 143.997009,336.036743 144.617126,335.730804 
	C145.366562,334.144684 146.115997,332.558594 147.187576,330.264618 
	C147.793076,320.400665 146.624191,310.745148 140.781082,302.599792 
	C137.612610,298.182861 133.193085,294.429871 128.711227,291.264801 
	C125.317123,288.867920 121.729149,290.623047 119.476898,294.083557 
	C116.993286,297.899536 117.831619,301.218292 121.304230,304.049835 
	C123.061317,305.482574 125.318314,306.758057 126.257706,308.647369 
	C128.547531,313.252716 130.200470,318.174744 132.009033,323.843933 
	C132.665710,327.241058 133.322403,330.638153 134.006256,333.995636 
	C134.006256,333.995636 133.959305,334.006073 134.207520,334.545288 
	C134.806015,335.047943 135.404510,335.550629 136.009552,335.991791 
	C136.009552,335.991791 135.948868,336.003693 136.265030,336.520233 
M244.836166,302.537506 
	C250.414841,298.216553 257.385162,294.882782 261.291687,289.375671 
	C270.310181,276.661926 270.860962,262.446747 263.069183,248.719193 
	C255.881104,236.055237 244.570816,229.950607 229.915619,230.000778 
	C213.935837,230.055481 201.040222,239.825226 195.352310,253.752701 
	C189.682892,267.635010 193.576340,284.607727 204.532593,294.831879 
	C216.033752,305.564545 229.434662,307.499268 244.836166,302.537506 
M249.122284,87.258339 
	C227.899918,86.542595 210.556091,104.901199 214.912109,125.784203 
	C217.745468,139.367508 228.742142,150.737671 241.605972,151.971466 
	C260.832062,153.815460 272.757629,142.747330 276.950897,131.419357 
	C283.869232,112.729523 272.777771,90.320747 249.122284,87.258339 
M95.917786,235.533203 
	C90.802750,249.290970 94.510132,264.679504 104.158478,272.552948 
	C117.697906,283.601685 138.430618,282.339142 150.200287,269.352478 
	C162.769592,255.483475 159.193008,229.893555 142.990570,220.512741 
	C127.575203,211.587570 104.801521,215.344666 95.917786,235.533203 
M346.034698,238.706604 
	C344.629211,261.092163 363.234924,276.951904 385.018707,272.520660 
	C399.911011,269.491333 409.356415,258.879608 410.400055,243.444138 
	C411.207886,231.497070 406.882751,221.023544 395.894226,213.956116 
	C375.508057,200.844421 348.267578,213.706512 346.034698,238.706604 
M321.927399,369.522308 
	C320.871857,357.398041 316.630249,347.090363 305.361664,340.908600 
	C294.479584,334.938812 283.226654,335.127197 272.795105,341.177307 
	C260.866364,348.095764 255.289474,359.400574 257.241913,373.041962 
	C260.196625,393.685852 276.893250,404.222473 296.338928,400.542725 
	C311.044495,397.759949 320.298065,385.942200 321.927399,369.522308 
M343.010132,320.675293 
	C343.051239,324.589813 342.430084,328.651154 343.259399,332.390900 
	C345.615723,343.016815 356.502960,349.591583 367.209503,347.620361 
	C381.090088,345.064819 386.388367,334.102295 385.683533,324.861237 
	C384.940796,315.122925 376.966675,306.230225 368.784973,305.148163 
	C356.448029,303.516571 347.374115,308.723541 343.010132,320.675293 
M191.755737,336.787476 
	C187.176285,331.473480 181.280273,329.748016 174.432343,329.980011 
	C164.539062,330.315186 156.745773,336.315002 154.280716,345.906403 
	C152.002151,354.772217 156.433044,365.397675 164.324097,369.990814 
	C174.026093,375.637970 184.472427,373.749634 192.409866,364.913849 
	C198.740112,357.867157 198.579651,346.301849 191.755737,336.787476 
M146.088806,151.458878 
	C143.669052,153.876053 140.623459,155.922089 138.933426,158.771988 
	C129.545746,174.602417 143.407455,191.733765 158.245560,191.258118 
	C174.969040,190.722015 183.231705,173.718155 177.063675,160.022110 
	C172.791428,150.535675 158.433151,144.191727 146.088806,151.458878 
M211.102722,187.495392 
	C203.027100,191.140457 197.417297,197.164001 193.950775,205.261047 
	C192.099503,209.585175 193.079025,213.341660 196.536270,215.113190 
	C200.846542,217.321854 205.397858,216.107300 207.477753,211.795441 
	C210.730042,205.053040 215.995193,200.982391 223.095703,199.066132 
	C224.844986,198.594055 226.719711,198.394241 228.326462,197.628159 
	C231.346039,196.188431 233.626251,193.853653 232.780457,190.231979 
	C231.948120,186.667969 230.043701,183.443176 225.677353,184.089661 
	C220.997345,184.782593 216.408997,186.094513 211.102722,187.495392 
M311.571533,277.999054 
	C303.784973,282.892609 299.171631,290.159210 296.350586,298.674255 
	C295.107605,302.426178 297.449371,307.805267 300.833221,308.667694 
	C304.951477,309.717255 308.684204,308.486115 310.190948,304.259857 
	C313.350555,295.397522 319.191406,289.719604 328.136078,286.716156 
	C332.332825,285.306946 332.622955,281.151215 331.778595,277.453064 
	C331.035034,274.196381 328.400757,272.267670 325.064606,273.111481 
	C320.664154,274.224457 316.438080,276.026703 311.571533,277.999054 
z"/>
<path fill="#CD242B" opacity="1.000000" stroke="none" 
	d="
M434.484436,171.277344 
	C437.813660,170.117477 440.809509,169.106903 443.764160,167.987671 
	C449.825623,165.691544 451.003601,165.768509 452.880463,172.023758 
	C457.128143,186.180725 461.775909,200.336197 464.426483,214.827820 
	C469.149597,240.650833 467.940948,266.651276 462.536469,292.310425 
	C455.844543,324.081818 442.450989,352.849792 422.432983,378.489014 
	C391.495697,418.113739 351.676056,444.314819 302.880096,456.167297 
	C272.735046,463.489502 242.236847,463.589508 211.694534,457.408813 
	C170.179291,449.007568 134.540359,429.656921 104.290306,400.323853 
	C77.294151,374.146088 58.943275,342.759369 48.502090,306.558807 
	C39.364742,274.878815 37.587666,242.763748 43.592876,210.611984 
	C53.200176,159.174683 78.261200,116.367020 118.701927,82.770714 
	C140.410019,64.736626 164.881485,51.777447 191.745758,43.634216 
	C221.447495,34.630863 251.897766,31.911461 282.667297,36.729904 
	C295.117065,38.679512 307.351410,42.070202 319.625977,45.043751 
	C325.151550,46.382343 325.572113,47.631462 323.476074,52.734257 
	C322.526703,55.045498 321.609711,57.370155 320.647339,59.675919 
	C318.141113,65.680725 317.049744,66.165947 310.954681,64.311127 
	C291.536865,58.402023 271.635681,55.474064 251.376984,55.616173 
	C218.737289,55.845123 188.469406,64.569687 159.914688,80.538330 
	C128.686646,98.001945 103.934532,121.725632 86.622658,152.926956 
	C65.264389,191.421127 56.662365,232.756897 63.563858,276.339172 
	C73.553734,339.424225 106.964607,386.894501 163.033539,417.602875 
	C201.118942,438.461823 242.009201,444.663879 284.940613,437.643951 
	C329.205841,430.405884 366.285889,410.002747 396.213531,376.821289 
	C421.609009,348.664703 437.324341,315.673187 443.345490,278.156830 
	C448.885895,243.635788 444.968872,210.107025 432.663879,177.488846 
	C431.694733,174.919800 430.728058,172.724091 434.484436,171.277344 
z"/>
<path fill="#CD2529" opacity="1.000000" stroke="none" 
	d="
M244.473846,302.694214 
	C229.434662,307.499268 216.033752,305.564545 204.532593,294.831879 
	C193.576340,284.607727 189.682892,267.635010 195.352310,253.752701 
	C201.040222,239.825226 213.935837,230.055481 229.915619,230.000778 
	C244.570816,229.950607 255.881104,236.055237 263.069183,248.719193 
	C270.860962,262.446747 270.310181,276.661926 261.291687,289.375671 
	C257.385162,294.882782 250.414841,298.216553 244.473846,302.694214 
M253.070450,269.266907 
	C253.574188,263.953461 252.163269,259.222260 249.105072,254.831894 
	C243.867981,247.313583 234.190536,243.155029 226.266205,245.239243 
	C216.521851,247.802139 208.672562,255.991623 207.961945,264.500275 
	C206.815491,278.227631 215.923096,288.207642 226.075043,289.914215 
	C239.992996,292.253906 250.792023,283.876801 253.070450,269.266907 
z"/>
<path fill="#CD2529" opacity="1.000000" stroke="none" 
	d="
M249.514740,87.428802 
	C272.777771,90.320747 283.869232,112.729523 276.950897,131.419357 
	C272.757629,142.747330 260.832062,153.815460 241.605972,151.971466 
	C228.742142,150.737671 217.745468,139.367508 214.912109,125.784203 
	C210.556091,104.901199 227.899918,86.542595 249.514740,87.428802 
M229.033173,119.544937 
	C229.337143,120.821693 229.710129,122.086487 229.933975,123.377144 
	C231.467529,132.219803 240.008820,138.272095 249.234344,137.023422 
	C257.787415,135.865753 264.837036,126.923431 263.996796,118.297539 
	C263.132904,109.428909 254.395279,101.895035 245.799667,102.607361 
	C237.035934,103.333611 232.394058,107.812782 229.033173,119.544937 
z"/>
<path fill="#CE2529" opacity="1.000000" stroke="none" 
	d="
M96.021149,235.161591 
	C104.801521,215.344666 127.575203,211.587570 142.990570,220.512741 
	C159.193008,229.893555 162.769592,255.483475 150.200287,269.352478 
	C138.430618,282.339142 117.697906,283.601685 104.158478,272.552948 
	C94.510132,264.679504 90.802750,249.290970 96.021149,235.161591 
M115.714439,234.000717 
	C114.951500,234.636475 114.132095,235.216034 113.434563,235.916901 
	C107.880455,241.497574 106.886002,250.273804 111.000206,257.144379 
	C114.705391,263.331940 123.505768,266.826416 130.450729,264.867859 
	C137.178070,262.970673 142.971939,254.759674 143.090485,247.637665 
	C143.277542,236.399261 128.268051,225.198929 115.714439,234.000717 
z"/>
<path fill="#CE2529" opacity="1.000000" stroke="none" 
	d="
M346.047791,238.250931 
	C348.267578,213.706512 375.508057,200.844421 395.894226,213.956116 
	C406.882751,221.023544 411.207886,231.497070 410.400055,243.444138 
	C409.356415,258.879608 399.911011,269.491333 385.018707,272.520660 
	C363.234924,276.951904 344.629211,261.092163 346.047791,238.250931 
M369.110992,226.306427 
	C368.041504,227.355042 366.956482,228.388336 365.905151,229.454819 
	C360.443878,234.994919 359.305542,243.132065 363.101562,249.415405 
	C367.304260,256.371918 375.808929,259.758026 383.234222,257.431213 
	C393.095886,254.340912 397.854462,244.255859 394.044708,234.458435 
	C390.151428,224.446167 378.679688,221.089584 369.110992,226.306427 
z"/>
<path fill="#CE2528" opacity="1.000000" stroke="none" 
	d="
M321.927185,369.961700 
	C320.298065,385.942200 311.044495,397.759949 296.338928,400.542725 
	C276.893250,404.222473 260.196625,393.685852 257.241913,373.041962 
	C255.289474,359.400574 260.866364,348.095764 272.795105,341.177307 
	C283.226654,335.127197 294.479584,334.938812 305.361664,340.908600 
	C316.630249,347.090363 320.871857,357.398041 321.927185,369.961700 
M284.344238,385.815979 
	C286.496490,385.908417 288.652496,386.131439 290.800323,386.069580 
	C298.135559,385.858215 302.651215,381.639404 305.374359,375.269043 
	C308.228729,368.591614 306.396057,361.436981 300.732574,356.046814 
	C296.500671,352.019135 288.386139,350.490967 283.192810,352.855072 
	C276.566772,355.871368 272.269348,360.780762 272.040161,368.289978 
	C271.785156,376.645508 276.017578,382.228729 284.344238,385.815979 
z"/>
<path fill="#2C2E85" opacity="1.000000" stroke="none" 
	d="
M343.066345,320.274780 
	C347.374115,308.723541 356.448029,303.516571 368.784973,305.148163 
	C376.966675,306.230225 384.940796,315.122925 385.683533,324.861237 
	C386.388367,334.102295 381.090088,345.064819 367.209503,347.620361 
	C356.502960,349.591583 345.615723,343.016815 343.259399,332.390900 
	C342.430084,328.651154 343.051239,324.589813 343.066345,320.274780 
M370.886322,325.740662 
	C370.236633,324.600250 369.705872,323.368561 368.914337,322.336975 
	C366.796356,319.576813 363.837006,318.865601 361.033478,320.650299 
	C358.414948,322.317200 356.005646,324.677368 357.677887,328.476105 
	C359.191040,331.913574 361.944336,334.246155 365.433075,332.738251 
	C367.743103,331.739777 369.149200,328.650024 370.886322,325.740662 
z"/>
<path fill="#CE2529" opacity="1.000000" stroke="none" 
	d="
M191.892426,337.128876 
	C198.579651,346.301849 198.740112,357.867157 192.409866,364.913849 
	C184.472427,373.749634 174.026093,375.637970 164.324097,369.990814 
	C156.433044,365.397675 152.002151,354.772217 154.280716,345.906403 
	C156.745773,336.315002 164.539062,330.315186 174.432343,329.980011 
	C181.280273,329.748016 187.176285,331.473480 191.892426,337.128876 
M180.509247,355.932037 
	C180.999435,354.899384 182.083069,353.715973 181.866348,352.862915 
	C181.263504,350.489929 180.723480,347.366150 179.022949,346.211548 
	C177.288361,345.033813 173.556488,344.902435 171.889877,346.046936 
	C170.184464,347.218109 169.043137,350.558624 169.212845,352.833313 
	C169.572540,357.654846 174.370499,359.090118 180.509247,355.932037 
z"/>
<path fill="#CE2528" opacity="1.000000" stroke="none" 
	d="
M146.383423,151.220947 
	C158.433151,144.191727 172.791428,150.535675 177.063675,160.022110 
	C183.231705,173.718155 174.969040,190.722015 158.245560,191.258118 
	C143.407455,191.733765 129.545746,174.602417 138.933426,158.771988 
	C140.623459,155.922089 143.669052,153.876053 146.383423,151.220947 
M162.986099,165.733154 
	C160.528320,164.877121 157.792755,162.941818 155.694321,163.481903 
	C153.764908,163.978500 151.459900,167.051147 151.284775,169.152649 
	C151.121368,171.113449 153.094788,174.077789 154.958954,175.136230 
	C156.626663,176.083115 159.830566,175.739517 161.640381,174.708267 
	C164.808029,172.903320 164.874237,169.683426 162.986099,165.733154 
z"/>
<path fill="#069148" opacity="1.000000" stroke="none" 
	d="
M132.109879,322.969238 
	C130.200470,318.174744 128.547531,313.252716 126.257706,308.647369 
	C125.318314,306.758057 123.061317,305.482574 121.304230,304.049835 
	C117.831619,301.218292 116.993286,297.899536 119.476898,294.083557 
	C121.729149,290.623047 125.317123,288.867920 128.711227,291.264801 
	C133.193085,294.429871 137.612610,298.182861 140.781082,302.599792 
	C146.624191,310.745148 147.793076,320.400665 146.808044,330.864929 
	C145.617996,332.989044 144.807510,334.512909 143.997009,336.036743 
	C143.997009,336.036743 143.984131,335.983521 143.696930,336.035095 
	C142.609299,336.344116 141.808868,336.601562 141.008438,336.859039 
	C140.253220,336.885010 139.498001,336.911011 138.122925,336.756775 
	C136.984985,336.385651 136.466919,336.194672 135.948868,336.003693 
	C135.948868,336.003693 136.009552,335.991791 135.869354,335.757965 
	C135.139206,335.018097 134.549255,334.512085 133.959305,334.006073 
	C133.959305,334.006073 134.006256,333.995636 134.003052,333.585114 
	C133.369843,329.772797 132.739868,326.371033 132.109879,322.969238 
z"/>
<path fill="#079048" opacity="1.000000" stroke="none" 
	d="
M211.441681,187.315842 
	C216.408997,186.094513 220.997345,184.782593 225.677353,184.089661 
	C230.043701,183.443176 231.948120,186.667969 232.780457,190.231979 
	C233.626251,193.853653 231.346039,196.188431 228.326462,197.628159 
	C226.719711,198.394241 224.844986,198.594055 223.095703,199.066132 
	C215.995193,200.982391 210.730042,205.053040 207.477753,211.795441 
	C205.397858,216.107300 200.846542,217.321854 196.536270,215.113190 
	C193.079025,213.341660 192.099503,209.585175 193.950775,205.261047 
	C197.417297,197.164001 203.027100,191.140457 211.441681,187.315842 
z"/>
<path fill="#089048" opacity="1.000000" stroke="none" 
	d="
M311.854279,277.765839 
	C316.438080,276.026703 320.664154,274.224457 325.064606,273.111481 
	C328.400757,272.267670 331.035034,274.196381 331.778595,277.453064 
	C332.622955,281.151215 332.332825,285.306946 328.136078,286.716156 
	C319.191406,289.719604 313.350555,295.397522 310.190948,304.259857 
	C308.684204,308.486115 304.951477,309.717255 300.833221,308.667694 
	C297.449371,307.805267 295.107605,302.426178 296.350586,298.674255 
	C299.171631,290.159210 303.784973,282.892609 311.854279,277.765839 
z"/>
<path fill="#059148" opacity="1.000000" stroke="none" 
	d="
M190.925583,126.826530 
	C190.925583,126.826530 190.549347,126.940987 190.142258,127.124458 
	C189.486023,127.554375 189.236877,127.800827 188.987732,128.047272 
	C188.987732,128.047272 188.993790,127.986961 188.751450,128.067734 
	C188.004639,128.380737 187.500168,128.612961 186.995697,128.845200 
	C181.498993,130.805725 176.077988,133.031693 170.477722,134.629150 
	C167.011993,135.617737 161.860321,132.095581 161.117020,128.952438 
	C160.261276,125.333969 162.832596,121.208252 167.075836,119.961136 
	C169.565033,119.229538 172.637802,119.740578 174.706360,118.477737 
	C178.814789,115.969551 182.311646,112.482857 186.254181,109.671036 
	C188.670624,107.947639 191.863251,105.107574 193.963531,105.649849 
	C197.322296,106.517044 201.519501,108.805382 199.755798,114.784195 
	C199.362549,116.049080 199.170654,116.635010 198.978760,117.220947 
	C198.978760,117.220947 198.942886,117.538681 198.730743,117.878372 
	C198.324966,118.476562 198.152054,118.748222 197.999832,119.033051 
	C197.999832,119.033051 197.980408,118.984772 197.813599,119.160194 
	C197.428711,119.600418 197.210648,119.865219 196.992599,120.130028 
	C196.926575,120.431778 196.765961,120.669662 196.040009,121.105141 
	C195.052185,122.265518 194.535110,123.164429 194.018036,124.063339 
	C194.018021,124.063339 193.993103,124.000862 193.833542,124.170349 
	C193.448242,124.606575 193.222504,124.873314 192.996765,125.140045 
	C192.930939,125.425652 192.778885,125.653786 192.133102,126.031937 
	C191.441635,126.411560 191.174973,126.607269 190.925583,126.826530 
z"/>
<path fill="#1C8451" opacity="1.000000" stroke="none" 
	d="
M132.059448,323.406586 
	C132.739868,326.371033 133.369843,329.772797 133.989456,333.604919 
	C133.322403,330.638153 132.665710,327.241058 132.059448,323.406586 
z"/>
<path fill="#1C8451" opacity="1.000000" stroke="none" 
	d="
M144.307068,335.883789 
	C144.807510,334.512909 145.617996,332.989044 146.646973,331.218842 
	C146.115997,332.558594 145.366562,334.144684 144.307068,335.883789 
z"/>
<path fill="#1C8754" opacity="1.000000" stroke="none" 
	d="
M194.310852,123.919968 
	C194.535110,123.164429 195.052185,122.265518 195.838196,121.191444 
	C195.605972,121.936386 195.104813,122.856491 194.310852,123.919968 
z"/>
<path fill="#1C8451" opacity="1.000000" stroke="none" 
	d="
M134.083405,334.275696 
	C134.549255,334.512085 135.139206,335.018097 135.866089,335.788696 
	C135.404510,335.550629 134.806015,335.047943 134.083405,334.275696 
z"/>
<path fill="#1C8451" opacity="1.000000" stroke="none" 
	d="
M141.343658,336.904938 
	C141.808868,336.601562 142.609299,336.344116 143.723267,336.042572 
	C143.250824,336.315918 142.464859,336.633392 141.343658,336.904938 
z"/>
<path fill="#1C8754" opacity="1.000000" stroke="none" 
	d="
M199.243607,117.019699 
	C199.170654,116.635010 199.362549,116.049080 199.704895,115.191528 
	C199.739700,115.552750 199.624069,116.185600 199.243607,117.019699 
z"/>
<path fill="#1C8754" opacity="1.000000" stroke="none" 
	d="
M187.300049,128.879623 
	C187.500168,128.612961 188.004639,128.380737 188.778778,128.080811 
	C188.567108,128.313431 188.085754,128.613739 187.300049,128.879623 
z"/>
<path fill="#1C8451" opacity="1.000000" stroke="none" 
	d="
M136.106949,336.261963 
	C136.466919,336.194672 136.984985,336.385651 137.747665,336.707245 
	C137.416534,336.731995 136.840775,336.626129 136.106949,336.261963 
z"/>
<path fill="#1C8754" opacity="1.000000" stroke="none" 
	d="
M189.240875,127.946030 
	C189.236877,127.800827 189.486023,127.554375 189.947418,127.151024 
	C189.937775,127.277672 189.715897,127.561226 189.240875,127.946030 
z"/>
<path fill="#1C8754" opacity="1.000000" stroke="none" 
	d="
M191.195953,126.813995 
	C191.174973,126.607269 191.441635,126.411560 191.942749,126.118881 
	C191.928711,126.266068 191.697510,126.533768 191.195953,126.813995 
z"/>
<path fill="#1C8754" opacity="1.000000" stroke="none" 
	d="
M193.233795,125.007484 
	C193.222504,124.873314 193.448242,124.606575 193.865906,124.161179 
	C193.862152,124.279984 193.666489,124.577446 193.233795,125.007484 
z"/>
<path fill="#1C8754" opacity="1.000000" stroke="none" 
	d="
M197.225235,119.999832 
	C197.210648,119.865219 197.428711,119.600418 197.839218,119.164703 
	C197.840393,119.285736 197.649139,119.577690 197.225235,119.999832 
z"/>
<path fill="#1C8754" opacity="1.000000" stroke="none" 
	d="
M198.233948,118.913208 
	C198.152054,118.748222 198.324966,118.476562 198.670975,118.026665 
	C198.704926,118.154633 198.586487,118.473999 198.233948,118.913208 
z"/>
<path fill="#000000" opacity="1.000000" stroke="none" 
	d="
M253.059799,269.707520 
	C250.792023,283.876801 239.992996,292.253906 226.075043,289.914215 
	C215.923096,288.207642 206.815491,278.227631 207.961945,264.500275 
	C208.672562,255.991623 216.521851,247.802139 226.266205,245.239243 
	C234.190536,243.155029 243.867981,247.313583 249.105072,254.831894 
	C252.163269,259.222260 253.574188,263.953461 253.059799,269.707520 
z"/>
<path fill="#000000" opacity="1.000000" stroke="none" 
	d="
M229.059753,119.139893 
	C232.394058,107.812782 237.035934,103.333611 245.799667,102.607361 
	C254.395279,101.895035 263.132904,109.428909 263.996796,118.297539 
	C264.837036,126.923431 257.787415,135.865753 249.234344,137.023422 
	C240.008820,138.272095 231.467529,132.219803 229.933975,123.377144 
	C229.710129,122.086487 229.337143,120.821693 229.059753,119.139893 
z"/>
<path fill="#000000" opacity="1.000000" stroke="none" 
	d="
M116.079857,233.892334 
	C128.268051,225.198929 143.277542,236.399261 143.090485,247.637665 
	C142.971939,254.759674 137.178070,262.970673 130.450729,264.867859 
	C123.505768,266.826416 114.705391,263.331940 111.000206,257.144379 
	C106.886002,250.273804 107.880455,241.497574 113.434563,235.916901 
	C114.132095,235.216034 114.951500,234.636475 116.079857,233.892334 
z"/>
<path fill="#000000" opacity="1.000000" stroke="none" 
	d="
M369.443298,226.114471 
	C378.679688,221.089584 390.151428,224.446167 394.044708,234.458435 
	C397.854462,244.255859 393.095886,254.340912 383.234222,257.431213 
	C375.808929,259.758026 367.304260,256.371918 363.101562,249.415405 
	C359.305542,243.132065 360.443878,234.994919 365.905151,229.454819 
	C366.956482,228.388336 368.041504,227.355042 369.443298,226.114471 
z"/>
<path fill="#000000" opacity="1.000000" stroke="none" 
	d="
M284.007935,385.574768 
	C276.017578,382.228729 271.785156,376.645508 272.040161,368.289978 
	C272.269348,360.780762 276.566772,355.871368 283.192810,352.855072 
	C288.386139,350.490967 296.500671,352.019135 300.732574,356.046814 
	C306.396057,361.436981 308.228729,368.591614 305.374359,375.269043 
	C302.651215,381.639404 298.135559,385.858215 290.800323,386.069580 
	C288.652496,386.131439 286.496490,385.908417 284.007935,385.574768 
z"/>
<path fill="#000000" opacity="1.000000" stroke="none" 
	d="
M370.923157,326.118591 
	C369.149200,328.650024 367.743103,331.739777 365.433075,332.738251 
	C361.944336,334.246155 359.191040,331.913574 357.677887,328.476105 
	C356.005646,324.677368 358.414948,322.317200 361.033478,320.650299 
	C363.837006,318.865601 366.796356,319.576813 368.914337,322.336975 
	C369.705872,323.368561 370.236633,324.600250 370.923157,326.118591 
z"/>
<path fill="#000000" opacity="1.000000" stroke="none" 
	d="
M180.225723,356.214844 
	C174.370499,359.090118 169.572540,357.654846 169.212845,352.833313 
	C169.043137,350.558624 170.184464,347.218109 171.889877,346.046936 
	C173.556488,344.902435 177.288361,345.033813 179.022949,346.211548 
	C180.723480,347.366150 181.263504,350.489929 181.866348,352.862915 
	C182.083069,353.715973 180.999435,354.899384 180.225723,356.214844 
z"/>
<path fill="#000000" opacity="1.000000" stroke="none" 
	d="
M163.096146,166.126312 
	C164.874237,169.683426 164.808029,172.903320 161.640381,174.708267 
	C159.830566,175.739517 156.626663,176.083115 154.958954,175.136230 
	C153.094788,174.077789 151.121368,171.113449 151.284775,169.152649 
	C151.459900,167.051147 153.764908,163.978500 155.694321,163.481903 
	C157.792755,162.941818 160.528320,164.877121 163.096146,166.126312 
z"/>
</svg>