<svg version="1.1" id="Layer_1" xmlns="http://www.w3.org/2000/svg" xmlns:xlink="http://www.w3.org/1999/xlink" x="0px" y="0px"
	 width="100%" viewBox="0 0 500 500" enable-background="new 0 0 500 500" xml:space="preserve">
<path fill="#000000" opacity="1.000000" stroke="none" 
	d="
M501.000000,195.000000 
	C501.000000,297.333313 501.000000,399.166626 501.000000,500.999939 
	C334.333405,500.999969 167.666794,500.999969 1.000144,501.000000 
	C1.000096,334.333435 1.000096,167.666870 1.000048,1.000234 
	C167.666519,1.000156 334.333038,1.000156 500.999786,1.000078 
	C501.000000,65.500000 501.000000,130.000000 501.000000,195.000000 
M382.003510,283.582642 
	C384.187256,278.929230 386.426392,274.300873 388.545105,269.618042 
	C397.441345,249.955399 405.166779,229.899673 409.497589,208.652313 
	C413.787720,187.604477 414.825928,166.442993 410.411896,145.395706 
	C404.598724,117.677299 392.409546,92.972801 373.889130,71.337036 
	C359.218536,54.198673 342.033203,40.444309 321.999939,30.182447 
	C303.861115,20.890999 284.245270,16.793354 264.217865,15.251403 
	C244.404465,13.725931 224.765381,16.329275 205.806549,22.381052 
	C173.628799,32.652390 147.104370,51.210159 126.574425,78.119629 
	C107.474678,103.154495 96.809319,131.558929 94.273163,162.813217 
	C92.012939,190.666977 95.954941,217.954697 106.460434,243.814636 
	C114.619507,263.898743 124.187187,283.438049 133.731094,302.924530 
	C143.582886,323.039490 154.150925,342.804016 164.426392,362.711090 
	C180.338135,393.537567 196.188644,424.396118 212.232269,455.153870 
	C217.838959,465.902618 223.793823,476.544464 233.252121,484.529572 
	C244.611984,494.119995 255.626877,495.851776 268.254242,487.732635 
	C278.899689,480.887939 285.153351,470.348541 290.798248,459.755157 
	C311.706299,420.518280 332.101959,381.007507 352.565826,341.535156 
	C362.423462,322.520905 372.003906,303.362976 382.003510,283.582642 
z"/>
<path fill="#2E3285" opacity="1.000000" stroke="none" 
	d="
M381.856689,283.926361 
	C372.003906,303.362976 362.423462,322.520905 352.565826,341.535156 
	C332.101959,381.007507 311.706299,420.518280 290.798248,459.755157 
	C285.153351,470.348541 278.899689,480.887939 268.254242,487.732635 
	C255.626877,495.851776 244.611984,494.119995 233.252121,484.529572 
	C223.793823,476.544464 217.838959,465.902618 212.232269,455.153870 
	C196.188644,424.396118 180.338135,393.537567 164.426392,362.711090 
	C154.150925,342.804016 143.582886,323.039490 133.731094,302.924530 
	C124.187187,283.438049 114.619507,263.898743 106.460434,243.814636 
	C95.954941,217.954697 92.012939,190.666977 94.273163,162.813217 
	C96.809319,131.558929 107.474678,103.154495 126.574425,78.119629 
	C147.104370,51.210159 173.628799,32.652390 205.806549,22.381052 
	C224.765381,16.329275 244.404465,13.725931 264.217865,15.251403 
	C284.245270,16.793354 303.861115,20.890999 321.999939,30.182447 
	C342.033203,40.444309 359.218536,54.198673 373.889130,71.337036 
	C392.409546,92.972801 404.598724,117.677299 410.411896,145.395706 
	C414.825928,166.442993 413.787720,187.604477 409.497589,208.652313 
	C405.166779,229.899673 397.441345,249.955399 388.545105,269.618042 
	C386.426392,274.300873 384.187256,278.929230 381.856689,283.926361 
M345.206696,82.245628 
	C341.054688,78.501892 337.020081,74.617622 332.732056,71.036736 
	C299.613220,43.379276 261.430359,38.319973 220.863663,47.672493 
	C194.359390,53.782963 172.297562,68.108910 154.304565,88.863167 
	C134.036758,112.241325 124.100708,139.528931 121.979324,169.940201 
	C120.956253,184.606628 122.957047,199.129364 126.548203,213.333206 
	C132.973679,238.747345 144.312073,262.161346 156.407166,285.266144 
	C171.960281,314.976654 187.308624,344.794617 202.689178,374.595184 
	C214.949158,398.349548 227.004272,422.210571 239.415833,445.885040 
	C242.909698,452.549408 246.365799,459.468719 253.260361,464.296600 
	C254.596512,462.871216 256.061646,461.729919 256.986267,460.250763 
	C261.634491,452.814728 266.520447,445.491730 270.627960,437.759857 
	C283.544189,413.446747 296.210724,389.000092 308.857697,364.545044 
	C321.898438,339.328461 334.839722,314.060181 347.756836,288.779938 
	C361.724426,261.443787 375.333160,233.959824 381.775940,203.609161 
	C385.145386,187.736511 386.626740,171.704468 383.739044,155.686035 
	C378.657837,127.499779 365.766876,103.217903 345.206696,82.245628 
z"/>
<path fill="#000000" opacity="1.000000" stroke="none" 
	d="
M345.396088,82.546661 
	C365.766876,103.217903 378.657837,127.499779 383.739044,155.686035 
	C386.626740,171.704468 385.145386,187.736511 381.775940,203.609161 
	C375.333160,233.959824 361.724426,261.443787 347.756836,288.779938 
	C334.839722,314.060181 321.898438,339.328461 308.857697,364.545044 
	C296.210724,389.000092 283.544189,413.446747 270.627960,437.759857 
	C266.520447,445.491730 261.634491,452.814728 256.986267,460.250763 
	C256.061646,461.729919 254.596512,462.871216 253.260361,464.296600 
	C246.365799,459.468719 242.909698,452.549408 239.415833,445.885040 
	C227.004272,422.210571 214.949158,398.349548 202.689178,374.595184 
	C187.308624,344.794617 171.960281,314.976654 156.407166,285.266144 
	C144.312073,262.161346 132.973679,238.747345 126.548203,213.333206 
	C122.957047,199.129364 120.956253,184.606628 121.979324,169.940201 
	C124.100708,139.528931 134.036758,112.241325 154.304565,88.863167 
	C172.297562,68.108910 194.359390,53.782963 220.863663,47.672493 
	C261.430359,38.319973 299.613220,43.379276 332.732056,71.036736 
	C337.020081,74.617622 341.054688,78.501892 345.396088,82.546661 
M225.320312,113.870827 
	C215.389542,116.984306 207.615402,123.479500 200.262955,130.400696 
	C178.942444,150.470718 173.169281,181.657425 183.582596,208.976028 
	C195.343521,239.829987 223.581070,255.114807 251.879333,255.777725 
	C274.446899,256.306427 293.584442,247.710663 308.904358,230.665726 
	C319.267303,219.135925 325.449768,205.706024 326.770020,190.599182 
	C329.069916,164.282333 321.410736,141.156067 299.858704,124.688744 
	C277.569824,107.658409 252.698883,103.530556 225.320312,113.870827 
z"/>
<path fill="#059246" opacity="1.000000" stroke="none" 
	d="
M225.663559,113.687881 
	C252.698883,103.530556 277.569824,107.658409 299.858704,124.688744 
	C321.410736,141.156067 329.069916,164.282333 326.770020,190.599182 
	C325.449768,205.706024 319.267303,219.135925 308.904358,230.665726 
	C293.584442,247.710663 274.446899,256.306427 251.879333,255.777725 
	C223.581070,255.114807 195.343521,239.829987 183.582596,208.976028 
	C173.169281,181.657425 178.942444,150.470718 200.262955,130.400696 
	C207.615402,123.479500 215.389542,116.984306 225.663559,113.687881 
M211.607788,161.228241 
	C205.497223,173.703125 204.700317,186.626770 209.929779,199.382324 
	C217.468597,217.770767 236.380997,229.196228 255.540054,227.802719 
	C276.867218,226.251541 293.469330,213.192261 298.012085,192.566940 
	C303.762909,166.456741 289.654510,143.266525 262.735931,137.319107 
	C241.773270,132.687592 222.850128,142.059128 211.607788,161.228241 
z"/>
<path fill="#D02527" opacity="1.000000" stroke="none" 
	d="
M211.805695,160.913879 
	C222.850128,142.059128 241.773270,132.687592 262.735931,137.319107 
	C289.654510,143.266525 303.762909,166.456741 298.012085,192.566940 
	C293.469330,213.192261 276.867218,226.251541 255.540054,227.802719 
	C236.380997,229.196228 217.468597,217.770767 209.929779,199.382324 
	C204.700317,186.626770 205.497223,173.703125 211.805695,160.913879 
z"/>
</svg>