<svg version="1.1" id="Layer_1" xmlns="http://www.w3.org/2000/svg" xmlns:xlink="http://www.w3.org/1999/xlink" x="0px" y="0px"
	 width="100%" viewBox="0 0 500 500" enable-background="new 0 0 500 500" xml:space="preserve">
<path fill="#000000" opacity="1.000000" stroke="none" 
	d="
M501.000000,188.000000 
	C501.000000,292.666656 501.000000,396.833282 501.000000,500.999939 
	C334.333405,500.999969 167.666794,500.999969 1.000145,501.000000 
	C1.000097,334.333435 1.000097,167.666870 1.000048,1.000235 
	C167.666519,1.000157 334.333038,1.000157 500.999786,1.000078 
	C501.000000,63.166668 501.000000,125.333336 501.000000,188.000000 
M389.275696,30.058903 
	C386.139801,28.983767 383.080231,27.481508 379.855164,26.905558 
	C363.717285,24.023533 347.606415,20.809166 331.350403,18.820536 
	C314.909302,16.809265 298.322662,15.239305 281.776459,14.983414 
	C240.728897,14.348602 199.622635,13.745451 158.839355,19.879662 
	C141.473724,22.491625 123.852348,24.451426 107.745476,32.145386 
	C96.707191,37.418179 89.407425,44.217278 89.684067,59.094112 
	C90.250824,89.573303 89.852287,120.070457 89.851166,150.560211 
	C89.847710,244.195419 89.871605,337.830658 89.783890,431.465790 
	C89.777512,438.271271 91.084351,444.681793 95.928993,449.338745 
	C100.782928,454.004639 106.214951,458.412994 112.120255,461.578705 
	C132.097397,472.288086 154.010086,477.176575 176.019012,481.683167 
	C199.684387,486.528900 223.668579,488.220734 247.718597,489.063934 
	C256.327759,489.365784 264.987823,488.633942 273.607635,488.099579 
	C282.715729,487.534912 291.919891,487.311676 300.875763,485.753448 
	C318.835205,482.628754 336.784454,479.233582 354.492798,474.939331 
	C370.668427,471.016754 386.329315,465.308685 399.921814,455.182800 
	C407.526031,449.517853 412.167297,442.261932 412.165192,432.425293 
	C412.138428,307.467285 412.107635,182.509232 412.209747,57.551315 
	C412.216888,48.819107 409.067200,41.898689 402.260101,36.881798 
	C398.570618,34.162613 394.097748,32.506439 389.275696,30.058903 
z"/>
<path fill="#181A4C" opacity="1.000000" stroke="none" 
	d="
M389.626953,30.214828 
	C394.097748,32.506439 398.570618,34.162613 402.260101,36.881798 
	C409.067200,41.898689 412.216888,48.819107 412.209747,57.551315 
	C412.107635,182.509232 412.138428,307.467285 412.165192,432.425293 
	C412.167297,442.261932 407.526031,449.517853 399.921814,455.182800 
	C386.329315,465.308685 370.668427,471.016754 354.492798,474.939331 
	C336.784454,479.233582 318.835205,482.628754 300.875763,485.753448 
	C291.919891,487.311676 282.715729,487.534912 273.607635,488.099579 
	C264.987823,488.633942 256.327759,489.365784 247.718597,489.063934 
	C223.668579,488.220734 199.684387,486.528900 176.019012,481.683167 
	C154.010086,477.176575 132.097397,472.288086 112.120255,461.578705 
	C106.214951,458.412994 100.782928,454.004639 95.928993,449.338745 
	C91.084351,444.681793 89.777512,438.271271 89.783890,431.465790 
	C89.871605,337.830658 89.847710,244.195419 89.851166,150.560211 
	C89.852287,120.070457 90.250824,89.573303 89.684067,59.094112 
	C89.407425,44.217278 96.707191,37.418179 107.745476,32.145386 
	C123.852348,24.451426 141.473724,22.491625 158.839355,19.879662 
	C199.622635,13.745451 240.728897,14.348602 281.776459,14.983414 
	C298.322662,15.239305 314.909302,16.809265 331.350403,18.820536 
	C347.606415,20.809166 363.717285,24.023533 379.855164,26.905558 
	C383.080231,27.481508 386.139801,28.983767 389.626953,30.214828 
M221.832581,406.697723 
	C233.789154,414.508209 246.958588,417.329407 260.822174,414.476776 
	C277.295624,411.087128 289.906982,401.935699 297.457550,386.534943 
	C300.499451,380.330383 305.018311,376.921448 312.277924,376.709564 
	C316.992676,376.571960 321.943481,375.710419 326.309479,373.970856 
	C344.628052,366.672058 353.764771,352.810852 353.778992,333.067627 
	C353.809998,289.909607 353.817474,246.751526 353.751465,203.593613 
	C353.744110,198.788589 353.413971,193.959763 352.865936,189.184143 
	C350.686066,170.186905 333.629761,154.524841 314.696045,154.234406 
	C306.434113,154.107681 300.787201,150.805893 296.724182,143.324951 
	C286.969940,125.365189 271.228973,115.481827 251.047714,115.498138 
	C230.964035,115.514366 214.884827,124.746727 205.329758,143.095566 
	C201.412781,150.617386 195.832092,154.220459 187.504883,154.160370 
	C184.873398,154.141373 182.142853,154.290466 179.619766,154.967117 
	C160.315262,160.144424 148.183487,176.012955 148.181503,195.890213 
	C148.176956,241.381027 148.185120,286.871826 148.186371,332.362640 
	C148.187088,358.600128 164.739563,375.851471 190.955063,376.827606 
	C196.669174,377.040375 200.906326,379.662811 203.392944,384.592163 
	C207.734772,393.199188 213.252853,400.731873 221.832581,406.697723 
M321.892914,60.120209 
	C332.231873,58.797115 342.570831,57.474018 352.909760,56.150925 
	C352.834869,55.336418 352.759979,54.521912 352.685089,53.707409 
	C284.616425,44.443241 216.564362,44.386036 148.466217,54.715763 
	C150.440918,56.063572 152.457352,56.703270 154.518631,56.923882 
	C169.908371,58.571003 185.275436,60.612629 200.708954,61.632389 
	C240.822021,64.282837 280.933777,63.869324 321.892914,60.120209 
z"/>
<path fill="#039347" opacity="1.000000" stroke="none" 
	d="
M221.525269,406.505554 
	C213.252853,400.731873 207.734772,393.199188 203.392944,384.592163 
	C200.906326,379.662811 196.669174,377.040375 190.955063,376.827606 
	C164.739563,375.851471 148.187088,358.600128 148.186371,332.362640 
	C148.185120,286.871826 148.176956,241.381027 148.181503,195.890213 
	C148.183487,176.012955 160.315262,160.144424 179.619766,154.967117 
	C182.142853,154.290466 184.873398,154.141373 187.504883,154.160370 
	C195.832092,154.220459 201.412781,150.617386 205.329758,143.095566 
	C214.884827,124.746727 230.964035,115.514366 251.047714,115.498138 
	C271.228973,115.481827 286.969940,125.365189 296.724182,143.324951 
	C300.787201,150.805893 306.434113,154.107681 314.696045,154.234406 
	C333.629761,154.524841 350.686066,170.186905 352.865936,189.184143 
	C353.413971,193.959763 353.744110,198.788589 353.751465,203.593613 
	C353.817474,246.751526 353.809998,289.909607 353.778992,333.067627 
	C353.764771,352.810852 344.628052,366.672058 326.309479,373.970856 
	C321.943481,375.710419 316.992676,376.571960 312.277924,376.709564 
	C305.018311,376.921448 300.499451,380.330383 297.457550,386.534943 
	C289.906982,401.935699 277.295624,411.087128 260.822174,414.476776 
	C246.958588,417.329407 233.789154,414.508209 221.525269,406.505554 
M327.170380,339.252991 
	C327.441010,336.791718 327.945068,334.330719 327.947571,331.869171 
	C327.992462,287.824371 327.990417,243.779526 327.939270,199.734756 
	C327.936218,197.101822 327.436127,194.469467 327.068298,191.544800 
	C327.068298,191.544800 327.047394,191.237137 326.880829,190.630463 
	C326.641479,190.049347 326.402130,189.468216 325.793457,188.317093 
	C322.634155,182.900848 318.118378,179.948074 311.650940,179.964813 
	C300.011688,179.994949 289.854828,176.024872 282.029449,167.341904 
	C278.197540,163.090057 275.179291,158.086456 271.937714,153.324448 
	C260.816437,136.986786 237.331177,138.521515 228.320251,156.106110 
	C220.421402,171.520569 208.105850,180.067673 190.344772,179.997833 
	C180.698990,179.959915 174.981735,185.798904 174.978531,195.393616 
	C174.963043,241.704361 174.956268,288.015106 174.957184,334.325867 
	C174.957382,344.224640 180.685684,349.508545 190.717514,350.182007 
	C196.218674,350.551300 201.897049,351.739441 207.004257,353.784943 
	C217.107285,357.831268 223.579742,365.893585 228.703644,375.320496 
	C234.686996,386.328644 245.954865,391.191132 257.529510,387.917145 
	C265.788788,385.580902 271.199860,379.943512 275.054688,372.289215 
	C282.163818,358.173004 294.340851,351.099884 309.712982,350.245605 
	C317.704010,349.801514 323.343262,347.154144 327.170380,339.252991 
z"/>
<path fill="#C9252F" opacity="1.000000" stroke="none" 
	d="
M321.442566,60.189957 
	C280.933777,63.869324 240.822021,64.282837 200.708954,61.632389 
	C185.275436,60.612629 169.908371,58.571003 154.518631,56.923882 
	C152.457352,56.703270 150.440918,56.063572 148.466217,54.715763 
	C216.564362,44.386036 284.616425,44.443241 352.685089,53.707409 
	C352.759979,54.521912 352.834869,55.336418 352.909760,56.150925 
	C342.570831,57.474018 332.231873,58.797115 321.442566,60.189957 
z"/>
<path fill="#000000" opacity="1.000000" stroke="none" 
	d="
M327.047394,191.237137 
	C327.047394,191.237137 327.068298,191.544800 327.061005,192.174835 
	C327.036774,217.091324 327.035858,241.377808 326.998413,265.664215 
	C326.960205,290.447418 326.886047,315.230591 326.827637,340.013763 
	C323.343262,347.154144 317.704010,349.801514 309.712982,350.245605 
	C294.340851,351.099884 282.163818,358.173004 275.054688,372.289215 
	C271.199860,379.943512 265.788788,385.580902 257.529510,387.917145 
	C245.954865,391.191132 234.686996,386.328644 228.703644,375.320496 
	C223.579742,365.893585 217.107285,357.831268 207.004257,353.784943 
	C201.897049,351.739441 196.218674,350.551300 190.717514,350.182007 
	C180.685684,349.508545 174.957382,344.224640 174.957184,334.325867 
	C174.956268,288.015106 174.963043,241.704361 174.978531,195.393616 
	C174.981735,185.798904 180.698990,179.959915 190.344772,179.997833 
	C208.105850,180.067673 220.421402,171.520569 228.320251,156.106110 
	C237.331177,138.521515 260.816437,136.986786 271.937714,153.324448 
	C275.179291,158.086456 278.197540,163.090057 282.029449,167.341904 
	C289.854828,176.024872 300.011688,179.994949 311.650940,179.964813 
	C318.118378,179.948074 322.634155,182.900848 325.949219,188.940704 
	C326.419098,190.121918 326.733246,190.679535 327.047394,191.237137 
z"/>
<path fill="#1E8653" opacity="1.000000" stroke="none" 
	d="
M326.999023,339.633362 
	C326.886047,315.230591 326.960205,290.447418 326.998413,265.664215 
	C327.035858,241.377808 327.036774,217.091324 327.110535,192.320862 
	C327.436127,194.469467 327.936218,197.101822 327.939270,199.734756 
	C327.990417,243.779526 327.992462,287.824371 327.947571,331.869171 
	C327.945068,334.330719 327.441010,336.791718 326.999023,339.633362 
z"/>
<path fill="#1E8653" opacity="1.000000" stroke="none" 
	d="
M326.964111,190.933807 
	C326.733246,190.679535 326.419098,190.121918 326.133850,189.225708 
	C326.402130,189.468216 326.641479,190.049347 326.964111,190.933807 
z"/>
</svg>