<svg version="1.1" id="Layer_1" xmlns="http://www.w3.org/2000/svg" xmlns:xlink="http://www.w3.org/1999/xlink" x="0px" y="0px"
	 width="100%" viewBox="0 0 500 500" enable-background="new 0 0 500 500" xml:space="preserve">
<path fill="#000000" opacity="1.000000" stroke="none" 
	d="
M501.000000,179.000000 
	C501.000000,286.666626 501.000000,393.833282 501.000000,500.999939 
	C334.333405,500.999939 167.666794,500.999939 1.000147,500.999969 
	C1.000098,334.333435 1.000098,167.666870 1.000049,1.000236 
	C167.666519,1.000158 334.333038,1.000158 500.999786,1.000079 
	C501.000000,60.166668 501.000000,119.333336 501.000000,179.000000 
M278.509308,450.069580 
	C284.761719,447.291290 289.020355,442.294250 289.747406,435.826202 
	C290.856323,425.961487 291.038269,415.929474 290.738861,405.994843 
	C290.577332,400.635651 292.593964,398.523346 297.257141,396.848297 
	C316.622467,389.892242 332.584198,377.712830 345.759430,362.285187 
	C366.271484,338.266449 375.842834,309.904572 375.767944,278.415771 
	C375.685150,243.616516 375.242981,208.817825 374.862335,174.019913 
	C374.802551,168.552582 374.653442,163.027420 373.828705,157.638733 
	C371.702209,143.744705 366.043823,131.655212 354.387848,123.074112 
	C350.818634,120.446465 347.045197,118.096291 343.810608,115.918839 
	C350.454620,115.918839 357.239380,116.147179 364.002014,115.857979 
	C371.556580,115.534912 377.337402,111.789673 380.784637,105.091263 
	C388.551575,89.999008 381.836090,74.298409 365.598785,68.897682 
	C347.988495,63.040279 330.370667,57.199078 312.863647,51.044899 
	C310.310547,50.147423 307.769806,47.947319 306.227234,45.669979 
	C300.647827,37.432835 295.579224,28.937132 287.202637,22.952490 
	C270.359344,10.918777 252.255447,7.899141 232.502701,14.120340 
	C216.127777,19.277685 205.182831,30.697258 196.966187,45.040665 
	C194.753250,48.903687 191.900436,50.801113 187.959442,52.082592 
	C170.633926,57.716263 153.392410,63.610363 136.039337,69.156334 
	C126.508652,72.202316 120.870262,78.503029 119.336166,88.199005 
	C117.169525,101.892845 125.328140,116.559380 141.388458,115.955986 
	C146.796249,115.752815 152.201035,115.469276 158.991791,115.159264 
	C156.358551,116.926880 154.647614,117.836815 153.221619,119.074898 
	C147.752014,123.823662 141.654068,128.086365 137.111313,133.615540 
	C127.633400,145.151535 126.428055,159.514832 126.269325,173.663208 
	C125.904755,206.158188 125.959412,238.660767 126.188721,271.157837 
	C126.262299,281.584961 126.756798,292.097137 128.204300,302.409607 
	C132.089081,330.086243 145.504517,353.096802 165.246536,372.333282 
	C177.582901,384.353760 192.420120,392.906799 208.628845,398.863861 
	C211.288315,399.841309 212.162354,401.273010 212.095428,403.994537 
	C211.952103,409.823181 212.094223,415.658783 212.111328,421.491516 
	C212.118179,423.824738 212.256943,426.170166 212.073242,428.489258 
	C211.070709,441.145416 219.133728,448.853394 228.519913,451.674255 
	C233.868408,453.281677 235.635147,455.829590 235.137741,461.170959 
	C234.691696,465.960785 234.980331,470.830566 235.115784,475.660248 
	C235.319351,482.918030 240.738281,489.171936 248.028214,490.769958 
	C254.611374,492.212982 263.300812,488.692230 265.444641,482.302795 
	C267.284393,476.819672 267.590393,470.684540 267.772461,464.812897 
	C268.091278,454.530975 267.833954,454.523590 276.975525,450.911346 
	C277.284027,450.789398 277.577209,450.628662 278.509308,450.069580 
z"/>
<path fill="#2B2E87" opacity="1.000000" stroke="none" 
	d="
M278.193420,450.277802 
	C277.577209,450.628662 277.284027,450.789398 276.975525,450.911346 
	C267.833954,454.523590 268.091278,454.530975 267.772461,464.812897 
	C267.590393,470.684540 267.284393,476.819672 265.444641,482.302795 
	C263.300812,488.692230 254.611374,492.212982 248.028214,490.769958 
	C240.738281,489.171936 235.319351,482.918030 235.115784,475.660248 
	C234.980331,470.830566 234.691696,465.960785 235.137741,461.170959 
	C235.635147,455.829590 233.868408,453.281677 228.519913,451.674255 
	C219.133728,448.853394 211.070709,441.145416 212.073242,428.489258 
	C212.256943,426.170166 212.118179,423.824738 212.111328,421.491516 
	C212.094223,415.658783 211.952103,409.823181 212.095428,403.994537 
	C212.162354,401.273010 211.288315,399.841309 208.628845,398.863861 
	C192.420120,392.906799 177.582901,384.353760 165.246536,372.333282 
	C145.504517,353.096802 132.089081,330.086243 128.204300,302.409607 
	C126.756798,292.097137 126.262299,281.584961 126.188721,271.157837 
	C125.959412,238.660767 125.904755,206.158188 126.269325,173.663208 
	C126.428055,159.514832 127.633400,145.151535 137.111313,133.615540 
	C141.654068,128.086365 147.752014,123.823662 153.221619,119.074898 
	C154.647614,117.836815 156.358551,116.926880 158.991791,115.159264 
	C152.201035,115.469276 146.796249,115.752815 141.388458,115.955986 
	C125.328140,116.559380 117.169525,101.892845 119.336166,88.199005 
	C120.870262,78.503029 126.508652,72.202316 136.039337,69.156334 
	C153.392410,63.610363 170.633926,57.716263 187.959442,52.082592 
	C191.900436,50.801113 194.753250,48.903687 196.966187,45.040665 
	C205.182831,30.697258 216.127777,19.277685 232.502701,14.120340 
	C252.255447,7.899141 270.359344,10.918777 287.202637,22.952490 
	C295.579224,28.937132 300.647827,37.432835 306.227234,45.669979 
	C307.769806,47.947319 310.310547,50.147423 312.863647,51.044899 
	C330.370667,57.199078 347.988495,63.040279 365.598785,68.897682 
	C381.836090,74.298409 388.551575,89.999008 380.784637,105.091263 
	C377.337402,111.789673 371.556580,115.534912 364.002014,115.857979 
	C357.239380,116.147179 350.454620,115.918839 343.810608,115.918839 
	C347.045197,118.096291 350.818634,120.446465 354.387848,123.074112 
	C366.043823,131.655212 371.702209,143.744705 373.828705,157.638733 
	C374.653442,163.027420 374.802551,168.552582 374.862335,174.019913 
	C375.242981,208.817825 375.685150,243.616516 375.767944,278.415771 
	C375.842834,309.904572 366.271484,338.266449 345.759430,362.285187 
	C332.584198,377.712830 316.622467,389.892242 297.257141,396.848297 
	C292.593964,398.523346 290.577332,400.635651 290.738861,405.994843 
	C291.038269,415.929474 290.856323,425.961487 289.747406,435.826202 
	C289.020355,442.294250 284.761719,447.291290 278.193420,450.277802 
M267.261749,127.872757 
	C255.461136,127.921501 243.660538,127.970245 230.945465,127.967613 
	C222.484604,128.280884 213.962936,128.070816 205.578857,129.044952 
	C195.924271,130.166718 186.149979,131.516464 176.865768,134.253281 
	C164.919525,137.774826 154.382187,143.939178 151.615829,157.671143 
	C150.607635,162.675735 150.008240,167.851776 149.989639,172.952393 
	C149.852280,210.612274 149.865646,248.272995 149.963959,285.933105 
	C149.975143,290.219452 150.448898,294.576965 151.311951,298.777435 
	C158.891464,335.666626 179.958206,361.407318 214.944809,375.748260 
	C218.658051,377.270325 220.884125,376.870941 223.717224,374.191772 
	C240.532379,358.290466 263.872681,359.468018 280.582214,375.221527 
	C281.649719,376.227936 284.193481,376.724243 285.566681,376.197205 
	C325.461121,360.886414 351.238403,325.324005 351.883209,282.720093 
	C352.475098,243.610657 351.599670,204.472046 350.894745,165.354858 
	C350.717987,155.547211 347.759521,146.021423 338.341980,140.778717 
	C332.040192,137.270554 325.341125,134.063690 318.424408,132.154678 
	C301.957855,127.609901 284.929230,128.268463 267.261749,127.872757 
M221.279465,92.084251 
	C226.207245,92.908997 229.937836,95.384148 231.837418,100.112236 
	C232.975327,102.944489 234.734985,104.125984 237.905045,104.056992 
	C246.561615,103.868568 255.235245,104.232040 263.879150,103.853119 
	C266.077393,103.756752 268.721649,102.177841 270.233612,100.462639 
	C273.583923,96.662025 276.906250,92.356354 282.152771,92.350983 
	C295.086578,92.337761 308.039337,92.826508 320.950348,93.649063 
	C333.337433,94.438232 345.675507,95.975037 358.049927,97.005249 
	C360.490417,97.208427 363.657349,97.973404 364.120392,93.809151 
	C364.529816,90.127037 363.323792,88.058403 359.531952,86.847763 
	C341.382080,81.052979 323.398254,74.727341 305.183960,69.150406 
	C298.414703,67.077766 294.260406,62.957539 290.663544,57.262833 
	C287.061340,51.559586 283.199066,45.854370 278.555054,41.008457 
	C267.401245,29.369764 248.999802,26.679365 234.441299,33.594456 
	C225.003952,38.077072 218.846390,45.622147 213.735291,54.342438 
	C209.466949,61.624855 204.081894,67.176933 195.428864,69.781639 
	C177.991058,75.030716 160.820435,81.165192 143.520523,86.876648 
	C140.066101,88.017097 137.275620,89.571167 138.079391,93.851128 
	C138.910995,98.279327 142.529495,96.811943 145.298889,97.039894 
	C146.121857,97.107635 146.963135,97.011848 147.791840,96.941551 
	C159.008850,95.989983 170.219772,94.960724 181.443130,94.091904 
	C191.687775,93.298843 201.943176,92.636253 212.199432,92.007408 
	C214.940948,91.839317 217.702927,92.005264 221.279465,92.084251 
M235.818420,422.380524 
	C236.269058,425.510803 234.160736,430.349060 239.450104,430.646667 
	C247.282303,431.087250 255.170959,430.587219 263.033386,430.396606 
	C266.205231,430.319733 267.133942,428.390930 267.088623,425.400513 
	C266.967712,417.423126 267.150085,409.441101 267.027344,401.463745 
	C266.910706,393.883423 259.067627,385.830902 251.608597,386.110413 
	C243.174896,386.426483 235.666458,392.987122 235.819229,401.464539 
	C235.939011,408.111603 235.828003,414.762848 235.818420,422.380524 
z"/>
<path fill="#000000" opacity="1.000000" stroke="none" 
	d="
M268.024414,128.197266 
	C284.929230,128.268463 301.957855,127.609901 318.424408,132.154678 
	C325.341125,134.063690 332.040192,137.270554 338.341980,140.778717 
	C347.759521,146.021423 350.717987,155.547211 350.894745,165.354858 
	C351.599670,204.472046 352.475098,243.610657 351.883209,282.720093 
	C351.238403,325.324005 325.461121,360.886414 285.566681,376.197205 
	C284.193481,376.724243 281.649719,376.227936 280.582214,375.221527 
	C263.872681,359.468018 240.532379,358.290466 223.717224,374.191772 
	C220.884125,376.870941 218.658051,377.270325 214.944809,375.748260 
	C179.958206,361.407318 158.891464,335.666626 151.311951,298.777435 
	C150.448898,294.576965 149.975143,290.219452 149.963959,285.933105 
	C149.865646,248.272995 149.852280,210.612274 149.989639,172.952393 
	C150.008240,167.851776 150.607635,162.675735 151.615829,157.671143 
	C154.382187,143.939178 164.919525,137.774826 176.865768,134.253281 
	C186.149979,131.516464 195.924271,130.166718 205.578857,129.044952 
	C213.962936,128.070816 222.484604,128.280884 231.440674,128.462418 
	C231.949417,167.061340 231.946838,205.165497 231.983353,243.269608 
	C232.001205,261.902710 232.091782,280.535767 232.099945,299.616913 
	C232.048676,304.556885 231.936157,309.052094 232.071182,313.539856 
	C232.270523,320.165070 237.441132,325.558136 244.002457,325.906006 
	C247.983887,326.117065 251.993423,326.112396 255.975876,325.914307 
	C261.527008,325.638123 266.494965,320.655273 267.276215,314.868408 
	C267.704407,312.232208 267.950989,309.915314 267.952515,307.598328 
	C267.992035,247.797974 268.006012,187.997620 268.024414,128.197266 
z"/>
<path fill="#000000" opacity="1.000000" stroke="none" 
	d="
M220.867493,92.051056 
	C217.702927,92.005264 214.940948,91.839317 212.199432,92.007408 
	C201.943176,92.636253 191.687775,93.298843 181.443130,94.091904 
	C170.219772,94.960724 159.008850,95.989983 147.791840,96.941551 
	C146.963135,97.011848 146.121857,97.107635 145.298889,97.039894 
	C142.529495,96.811943 138.910995,98.279327 138.079391,93.851128 
	C137.275620,89.571167 140.066101,88.017097 143.520523,86.876648 
	C160.820435,81.165192 177.991058,75.030716 195.428864,69.781639 
	C204.081894,67.176933 209.466949,61.624855 213.735291,54.342438 
	C218.846390,45.622147 225.003952,38.077072 234.441299,33.594456 
	C248.999802,26.679365 267.401245,29.369764 278.555054,41.008457 
	C283.199066,45.854370 287.061340,51.559586 290.663544,57.262833 
	C294.260406,62.957539 298.414703,67.077766 305.183960,69.150406 
	C323.398254,74.727341 341.382080,81.052979 359.531952,86.847763 
	C363.323792,88.058403 364.529816,90.127037 364.120392,93.809151 
	C363.657349,97.973404 360.490417,97.208427 358.049927,97.005249 
	C345.675507,95.975037 333.337433,94.438232 320.950348,93.649063 
	C308.039337,92.826508 295.086578,92.337761 282.152771,92.350983 
	C276.906250,92.356354 273.583923,96.662025 270.233612,100.462639 
	C268.721649,102.177841 266.077393,103.756752 263.879150,103.853119 
	C255.235245,104.232040 246.561615,103.868568 237.905045,104.056992 
	C234.734985,104.125984 232.975327,102.944489 231.837418,100.112236 
	C229.937836,95.384148 226.207245,92.908997 220.867493,92.051056 
M232.013550,53.624557 
	C231.519943,54.477676 230.976624,55.306190 230.540390,56.187702 
	C225.962250,65.438835 227.666107,76.617996 234.820389,83.083389 
	C243.418762,90.853874 253.265121,92.087891 263.849884,85.909332 
	C271.991638,81.156807 276.312592,70.154091 273.607178,60.586460 
	C271.232941,52.190144 265.714294,46.203819 257.202789,44.433067 
	C247.595734,42.434376 238.824783,44.723778 232.013550,53.624557 
z"/>
<path fill="#000000" opacity="1.000000" stroke="none" 
	d="
M235.818970,421.896362 
	C235.828003,414.762848 235.939011,408.111603 235.819229,401.464539 
	C235.666458,392.987122 243.174896,386.426483 251.608597,386.110413 
	C259.067627,385.830902 266.910706,393.883423 267.027344,401.463745 
	C267.150085,409.441101 266.967712,417.423126 267.088623,425.400513 
	C267.133942,428.390930 266.205231,430.319733 263.033386,430.396606 
	C255.170959,430.587219 247.282303,431.087250 239.450104,430.646667 
	C234.160736,430.349060 236.269058,425.510803 235.818970,421.896362 
z"/>
<path fill="#257E57" opacity="1.000000" stroke="none" 
	d="
M267.643066,128.035004 
	C268.006012,187.997620 267.992035,247.797974 267.952515,307.598328 
	C267.950989,309.915314 267.704407,312.232208 267.274170,314.382416 
	C266.963684,283.572662 266.949768,252.929596 266.938721,222.286545 
	C266.928528,193.975067 266.937775,165.663589 266.902588,137.352142 
	C266.892548,129.282394 266.597107,129.037506 258.356354,129.009201 
	C252.361053,128.988602 246.365448,128.979111 240.370300,129.015610 
	C233.452423,129.057724 233.005905,129.552246 233.009689,136.413498 
	C233.038254,188.206772 233.070892,240.000061 233.041000,291.793304 
	C233.039581,294.251984 232.459854,296.710327 232.149429,299.168823 
	C232.091782,280.535767 232.001205,261.902710 231.983353,243.269608 
	C231.946838,205.165497 231.949417,167.061340 231.897903,128.488098 
	C243.660538,127.970245 255.461136,127.921501 267.643066,128.035004 
z"/>
<path fill="#019347" opacity="1.000000" stroke="none" 
	d="
M232.099945,299.616913 
	C232.459854,296.710327 233.039581,294.251984 233.041000,291.793304 
	C233.070892,240.000061 233.038254,188.206772 233.009689,136.413498 
	C233.005905,129.552246 233.452423,129.057724 240.370300,129.015610 
	C246.365448,128.979111 252.361053,128.988602 258.356354,129.009201 
	C266.597107,129.037506 266.892548,129.282394 266.902588,137.352142 
	C266.937775,165.663589 266.928528,193.975067 266.938721,222.286545 
	C266.949768,252.929596 266.963684,283.572662 266.978394,314.701660 
	C266.494965,320.655273 261.527008,325.638123 255.975876,325.914307 
	C251.993423,326.112396 247.983887,326.117065 244.002457,325.906006 
	C237.441132,325.558136 232.270523,320.165070 232.071182,313.539856 
	C231.936157,309.052094 232.048676,304.556885 232.099945,299.616913 
z"/>
<path fill="#CC242A" opacity="1.000000" stroke="none" 
	d="
M232.264648,53.352192 
	C238.824783,44.723778 247.595734,42.434376 257.202789,44.433067 
	C265.714294,46.203819 271.232941,52.190144 273.607178,60.586460 
	C276.312592,70.154091 271.991638,81.156807 263.849884,85.909332 
	C253.265121,92.087891 243.418762,90.853874 234.820389,83.083389 
	C227.666107,76.617996 225.962250,65.438835 230.540390,56.187702 
	C230.976624,55.306190 231.519943,54.477676 232.264648,53.352192 
M259.869690,60.774616 
	C256.939331,56.547661 252.897980,55.426117 248.102615,56.712959 
	C244.001053,57.813625 241.647354,60.666821 241.007965,64.769012 
	C240.313370,69.225388 241.658508,73.054863 245.608704,75.499557 
	C249.699356,78.031174 253.854019,77.647873 257.652313,74.796204 
	C261.744080,71.724197 262.515839,67.427826 259.869690,60.774616 
z"/>
<path fill="#372C80" opacity="1.000000" stroke="none" 
	d="
M260.092499,61.080574 
	C262.515839,67.427826 261.744080,71.724197 257.652313,74.796204 
	C253.854019,77.647873 249.699356,78.031174 245.608704,75.499557 
	C241.658508,73.054863 240.313370,69.225388 241.007965,64.769012 
	C241.647354,60.666821 244.001053,57.813625 248.102615,56.712959 
	C252.897980,55.426117 256.939331,56.547661 260.092499,61.080574 
z"/>
</svg>